<svg version="1.2" xmlns="http://www.w3.org/2000/svg" viewBox="0 0 512 512" width="20" height="20"><style>.a{fill:#fff}</style><path class="a" d="m332.5 240h-206c-11.1 0-20-9-20-20 0-11 8.9-20 20-20h206c11 0 20 9 20 20 0 11-9 20-20 20z"/><path class="a" d="m251.6 280c11 0 20 9 20 20 0 11-9 20-20 20h-125.1c-11.1 0-20-9-20-20 0-11 8.9-20 20-20z"/><path class="a" d="m193.5 492c0 11-9 20-20 20h-66.9c-44.1 0-80-35.9-80-80v-352c0-44.1 35.9-80 80-80h245.9c44.1 0 80 35.9 80 80v123c0 11-9 20-20 20-11.1 0-20-9-20-20v-123c0-22.1-18-40-40-40h-245.9c-22.1 0-40 17.9-40 40v352c0 22.1 17.9 40 40 40h66.9c11 0 20 9 20 20z"/><path fill-rule="evenodd" class="a" d="m467.9 374.4l-109.6 109.4c-2.4 2.4-5.5 4.2-8.8 5.1l-80.7 22.4q-2.7 0.7-5.3 0.7c-5.4 0-10.5-2.1-14.4-6-5.1-5.3-6.9-12.8-4.8-19.8l23.9-78.7c1-3.2 2.7-6.1 5-8.4l109.8-109.5c23.4-23.4 61.5-23.4 84.9 0 23.4 23.4 23.4 61.4 0 84.8zm-60.5 3.9l-28.3-28.3-74.1 73.9-11.8 39.1 40.6-11.2zm32.1-60.4c-7.7-7.8-20.4-7.8-28.2 0l-3.9 3.8 28.3 28.3 3.9-3.9c7.7-7.7 7.7-20.4-0.1-28.2z"/><path class="a" d="m352.5 140c0 11-9 20-20 20h-206c-11.1 0-20-9-20-20 0-11 8.9-20 20-20h206c11 0 20 9 20 20z"/></svg>